<?xml version="1.0" encoding="UTF-8"?>
<svg version="1.1" viewBox="0 0 2048 1817" width="5148" height="4568" xmlns="http://www.w3.org/2000/svg">
<path transform="translate(0)" d="m0 0h2048v1817h-2048z" fill="#F4F4F4"/>
<path transform="translate(592,476)" d="m0 0h8l32 6 30 8 31 11 20 9 16 8 18 10 16 11 19 14 14 12 10 9 16 16 7 8 12 14 12 16 14 20 10 15 12 20 11 19 9 16 13 24 17 32 13 26 11 23 16 33 13 28 10 21 8 16 11 24 7 14 13 28 13 26 11 23 12 25 13 27 11 23 14 29 3 5h4l16-41 13-32 18-44 12-30 13-32 11-27 21-52 22-54 17-42 30-74 13-32 8-20 2-2h73l-3 3-8 5-5 5-7 10-4 13-1 5v18l5 80 6 104 7 122 10 177 1 22 3 21 5 20 6 16 8 12 8 7v1h-103l5-5 5-4 7-11 5-12 4-19 2-19v-13l-6-112-19-344-3-57-1-10-4-1-5 10-11 28-21 52-11 27-14 34-12 30-14 34-12 30-16 39-24 60-11 27-18 44-15 38-4 9 1 5 13 29 35 70 9 16 6 11 9 16 11 18 8 12 14 20 13 17 11 13 11 12 12 13 8 8 8 7 17 14 16 12 21 13 16 9 22 10 18 7 26 8 28 6 26 4 19 1 7 1v1h-30l-31-3-29-5-33-8-33-11-19-8-25-12-18-10-17-11-14-10-14-11-14-12-17-16-10-10-9-11-9-10-8-10-15-20-22-33-10-16-14-25-16-29-9-17-8-16-9-19-21-42-13-28-10-22-8-16-10-22-8-16-13-27-13-28-13-27-11-23-16-34-16-33-7-16-8-16-18-37-11-23-3-5-4 1-3 50-7 122-11 207-6 109v12l2 14 4 11 4 6v2l4 2 4 4h-48l10-10 5-10 3-11 2-20 5-93 6-112 10-186 6-108 1-15-5-12-17-33-14-24-8-14-14-22-14-20-12-16-13-15-9-10-11-12-8-7-13-12-20-15-15-10-11-7-16-8-23-10-30-10-21-5z" fill="#F4F4F4"/>
<path transform="translate(517,466)" d="m0 0h53l29 3 29 5 28 7 36 12 25 11 19 10 16 9 20 14 12 9 11 9 12 11 10 9 15 16 9 11 13 16 13 18 16 24 14 22 15 27 12 21 19 37 8 16 9 17 11 23 16 34 13 27 13 28 18 37 11 23 13 27 11 23 14 29 11 23 18 38 10 20 5-10 14-36 12-29 16-40 20-49 20-50 15-37 20-49 13-32 11-28 16-39 12-30 16-39 4-8h89l2 2v8l-18 9-5 5-6 8-4 13-1 15 12 210 3 50 4 72 8 142 2 37 3 20 5 20 6 15 5 8 7 6 12 5 2 4-1 6h-133l-1-1v-7l3-3 10-5 9-8 5-8 5-16 3-17 1-24-4-76-11-198-3-53-9-161v-15h-2l-3 10-20 49-13 32-15 37-11 27-16 39-11 27-16 40-15 37-12 30-13 32-12 30-15 37-6 16 12 24 11 23 8 17 10 19 15 30 14 24 9 15 22 33 13 17 8 10 12 14 11 12 15 15 8 7 13 11 15 11 20 13 18 10 21 10 24 9 32 9 25 5 27 3h42l27-3 26-5 29-8v-26l3-8 7-8 4-2h11l8 7 2 4v5h7l6 3 5 6 1 2v12l-4 6-8 6-14 3h-23l-33 11-26 6-29 4-14 1h-38l-26-2-29-4-28-6-31-9-25-9-33-15-22-12-23-15-16-12-11-9-14-12-7-7-7-6-7-8-11-11-9-11-13-16-12-16-15-22-10-15-14-24-16-29-12-23-20-38-11-23-16-33-10-22-7-15-18-37-11-23-9-20-8-16-11-24-8-16-14-30-7-14-9-20-8-16-15-31-13-28-17-34v-3h-2v13l-6 105-11 204-8 143v19l3 14 3 8 8 7 12 5 1 7-2 3h-76l-1-1v-8l4-3 10-4 5-5 5-10 3-14 2-26 7-131 11-209 8-143 1-18-20-40-14-25-15-25-16-24-14-19-11-13-7-8-11-12-16-16-8-7-15-12-20-14-25-14-24-11-27-9-25-6-27-4-13-1h-41l-31 3-35 6-27 7-10 3h-3l2 8v10l-3 9-7 9-8 5-6 2h-12l-9-3-8-6-5-7-3-10v-9l4-11 8-9 10-5 11-1 9 2 9 6 3 3 12-3 25-8 24-6 29-5zm75 10 4 2 24 6 28 10 20 9 19 10 15 10 14 10 14 11 15 14 11 10 7 8 10 11 9 11 10 13 16 23 12 19 9 15 12 21 17 32 7 15 1 5-4 67-10 185-7 129-5 90-2 41-2 20-4 13-5 9-9 9h48l-5-5-3-1-2-4-5-11-2-8-1-10v-12l13-239 7-132 5-87 2-30 4-1 9 17 11 23 17 35 9 19 13 28 17 35 11 23 9 20 8 16 18 38 13 27 13 28 14 29 13 28 14 29 9 19 8 16 9 17 8 16 10 19 10 18 16 28 24 36 10 14 10 13 14 17 10 11 7 8 13 13 8 7 11 10 17 13 18 13 22 13 29 15 19 8 22 8 27 8 33 7 26 4 23 2h30v-1l-7-1-19-1-32-5-26-6-30-10-21-9-16-8-18-10-18-12-14-11-11-9-10-9-8-7-10-10-7-8-12-13-11-14-12-16-11-16-13-20-14-24-6-10-8-16-12-23-18-36-11-23-10-22 1-5 11-27 18-45 17-41 12-31 12-29 10-25 15-37 14-34 16-40 15-36 10-25 17-42 14-35 5-12 4-1 1 1 2 25 5 96 18 327 4 75v13l-3 25-4 16-8 16-5 6-8 6v1h103l-5-5-6-7-6-11-6-16-5-23-2-15-6-111-11-194-11-187-1-13v-18l3-13 5-10 6-8 9-6 5-3v-1h-73l-3 4-11 28-14 34-14 35-20 49-12 30-16 39-19 47-12 30-15 36-11 28-18 44-24 60-7 18h-4l-3-5-9-19-8-16-14-29-12-25-17-35-11-23-15-31-7-16-8-16-11-24-8-16-15-31-9-20-8-16-8-17-22-44-12-22-16-30-10-17-16-27-8-12-11-16-13-18-9-11-12-14-12-13-15-15-11-9-15-12-17-12-18-11-20-11-25-11-34-12-32-8-27-5z" fill="#5C5C5C"/>
<path transform="translate(814,687)" d="m0 0h5l5 8 2 4-15 7-21 10-19 11-12 8-16 12-14 12-15 14-8 8-9 11-10 12-13 18-10 16-12 21-11 23-13 35-6 21-6 28-3 20-2 25v47l2 22 6 36 8 30 9 26 11 24 13 25 12 19 14 19 11 13 7 8 9 10 11 11 8 7 20 16 18 13 20 12 24 12 20 8 28 8 28 5 11 1h39l26-3 22-5 27-9 25-11 19-10 19-12 12-9 9-7 13-11 9-8 4 4 11 18-2 4-12 9-18 12-24 13-26 12-33 11-23 6-27 5-29 3h-43l-34-4-26-5-25-7-26-9-24-11-21-11-19-12-14-10-16-12-11-10-8-7-23-23-9-11-12-15-12-17-12-20-12-22-9-21-7-18-8-27-6-29-3-21-2-28v-24l2-26 5-32 8-34 9-26 10-24 14-27 12-19 12-17 11-14 24-26 16-15 17-14 19-14 19-12 28-15 20-9z" fill="#F4F4F4"/>
<path transform="translate(819,678)" d="m0 0 4 2 8 14 3 6-1 4-12 5-18 8-22 12-21 14-12 9-13 11-10 9-16 16-9 11-12 15-11 16-9 15-12 22-10 21-10 27-7 24-5 22-4 25-2 21v53l3 29 6 31 7 26 9 25 10 23 12 22 12 19 10 14 14 18 15 16 15 15 11 9 9 8 15 11 15 10 18 10 14 7 23 9 23 7 23 5 17 2 26 1 29-2 25-5 24-7 25-10 16-8 20-11 15-10 13-10 13-11 16-14 4 1 6 9 9 16 4 7-2 4-12 10-15 10-20 12-16 8-15 7-26 10-27 8-34 7-26 3-12 1h-35l-31-3-23-4-26-6-26-8-29-12-24-12-21-13-15-10-12-9-13-11-11-9-21-21-7-8-11-13-12-16-14-21-9-15-10-19-13-30-9-28-7-30-4-25-2-18-1-33 2-32 5-32 4-19 6-22 9-27 11-24 10-20 13-21 12-17 10-13 12-14 15-16 12-11 11-10 13-10 15-11 20-13 19-11 21-10 27-11zm-5 9-28 10-20 9-30 16-21 14-12 9-16 13-10 9-13 12-15 16-11 13-12 16-13 20-12 21-12 25-10 27-6 20-7 31-4 27-2 26v24l2 28 5 32 6 26 9 27 12 29 11 21 12 20 12 17 14 18 13 15 25 25 11 9 12 10 17 12 19 12 22 12 19 9 24 9 15 5 24 6 27 5 28 3h43l36-4 28-6 28-8 20-7 26-12 19-10 16-10 18-13 3-3-2-5-11-18h-3l-12 11-11 9-19 14-21 13-23 12-27 11-19 6-22 5-26 3h-39l-24-3-22-5-23-7-20-8-26-13-19-12-16-12-20-16-16-15-9-9-7-8-14-17-13-18-13-21-15-29-9-21-11-33-6-25-5-31-2-22v-47l3-33 6-32 7-26 10-28 11-25 11-21 11-18 14-20 13-16 13-15 13-13 8-7 13-11 18-13 19-12 23-12 21-9v-3l-5-9-1-1z" fill="#5C5C5C"/>
<path transform="translate(1252,894)" d="m0 0h2l8 21 8 27 6 28 4 29 1 12v45l-3 29-4 23-6 24-12 36-10 23-13 24-10 16-12 17-11 13-3 4h-2l-13-26-4-7 1-7 8-14 12-23 11-27 6-19 6-23 5-25 3-27 1-13v-42l-3-31-3-20 5-13 16-39z" fill="#F4F4F4"/>
<path transform="translate(905,670)" d="m0 0h18l25 1 31 4 29 6 27 8 28 11 29 14 17 10 17 11 21 16 14 12 15 14 7 7 7 8 12 14 13 17 10 16-1 8-12 28-7 17h-2l-5-14-12-25-13-23-11-16-13-17-12-14-9-10-10-10-8-7-17-14-16-11-20-12-16-8-15-7-25-9-26-7-24-4-10-1-30-1-4-4-3-5z" fill="#F4F4F4"/>
<path transform="translate(896,664)" d="m0 0h46l30 3 28 5 24 6 26 9 28 12 21 11 26 16 18 13 17 14 15 14 20 20 9 11 10 12 13 19 6 11-3 10-13 31-10 24-5 1-4-9-10-24-8-17-12-21-12-18-10-13-9-11-12-13-15-15-8-7-18-14-17-11-14-8-21-11-20-8-18-6-19-5-29-5-13-1h-26l-6-8-7-12 1-4zm9 6v4l4 7 6 1 26 1 23 3 23 5 17 5 27 10 23 11 26 16 14 10 13 11 8 7 10 9 10 10 9 11 10 12 13 18 10 16 10 18 12 25 4 12h2l13-31 7-17-1-7-12-18-11-14-9-10-7-8-9-10-9-9-8-7-14-12-19-14-22-14-22-12-19-9-31-12-28-8-31-6-25-3-25-1z" fill="#5C5C5C"/>
<path transform="translate(1253,879)" d="m0 0 4 4 10 24 7 24 6 24 5 30 2 18 1 17v31l-2 26-5 30-6 25-8 26-11 27-13 27-11 18-12 17-11 14-11 13-4 2-6-10-17-33-1-4 6-12 9-16 11-23 9-24 5-16 6-24 5-27 3-29v-46l-4-38-2-14 12-30 13-32 6-15zm-1 15-13 32-10 24-4 12 3 19 3 31v42l-3 31-3 20-6 27-6 20-10 27-14 29-11 19 1 7 14 27 2 4 4-2 8-10 10-13 13-20 9-16 10-19 11-28 10-32 6-27 4-29 1-13v-45l-3-29-7-36-7-25-7-20-3-7z" fill="#5C5C5C"/>
<path transform="translate(1636,1450)" d="m0 0h6l5 4 2 6 1 6h11l5 4 2 7-3 6-5 4-6 2h-23l-3-2-1-9v-15l3-8z" fill="#F4F4F4"/>
</svg>
